<?xml version="1.0" encoding="utf-8"?>
<!-- Generator: Adobe Illustrator 15.0.0, SVG Export Plug-In . SVG Version: 6.00 Build 0)  -->
<!DOCTYPE svg PUBLIC "-//W3C//DTD SVG 1.1//EN" "http://www.w3.org/Graphics/SVG/1.1/DTD/svg11.dtd">
<svg version="1.1" id="Ebene_1" xmlns="http://www.w3.org/2000/svg" xmlns:xlink="http://www.w3.org/1999/xlink" x="0px" y="0px"
	 width="16px" height="16px" viewBox="0 0 16 16" enable-background="new 0 0 16 16" xml:space="preserve">
<g>
	<polygon fill="#949494" points="24.132,24.511 24.532,23.022 24.928,21.538 26.018,22.626 27.105,23.714 25.619,24.112 	"/>
	
		<rect x="23.944" y="16.077" transform="matrix(0.7072 -0.707 0.707 0.7072 -3.371 27.094)" fill="#848484" width="14.161" height="3.079"/>
</g>
<path fill="#848484" d="M2.628,14.148c0.05,0,0.101,0,0.135-0.016l3.524-1.029c0.186-0.051,0.371-0.152,0.506-0.304l7.269-7.269
	c0.22-0.219,0.337-0.522,0.337-0.843s-0.117-0.607-0.337-0.826l-1.67-1.67c-0.455-0.455-1.214-0.455-1.669,0L3.472,9.461
	c-0.135,0.135-0.236,0.32-0.304,0.506L2.14,13.492c-0.051,0.168,0,0.37,0.135,0.505C2.375,14.099,2.511,14.148,2.628,14.148z
	 M3.994,10.742l1.518,1.519l-2.142,0.624L3.994,10.742z"/>
<path fill="#FFFFFF" d="M13.371,4.57l-1.67-1.67c-0.033-0.033-0.067-0.051-0.118-0.051c-0.033,0-0.084,0.018-0.117,0.051L9.526,4.84
	l0,0L4.518,9.849l1.905,1.905l4.893-4.892l0,0l2.056-2.056c0.051-0.034,0.051-0.102,0.051-0.118S13.405,4.621,13.371,4.57z"/>
</svg>
