<?xml version="1.0" encoding="utf-8"?>
<!-- Generator: Adobe Illustrator 15.0.0, SVG Export Plug-In . SVG Version: 6.00 Build 0)  -->
<!DOCTYPE svg PUBLIC "-//W3C//DTD SVG 1.1//EN" "http://www.w3.org/Graphics/SVG/1.1/DTD/svg11.dtd">
<svg version="1.1" id="Ebene_1" xmlns="http://www.w3.org/2000/svg" xmlns:xlink="http://www.w3.org/1999/xlink" x="0px" y="0px"
	 width="16px" height="16px" viewBox="0 0 16 16" enable-background="new 0 0 16 16" xml:space="preserve">
<path fill="#848484" d="M13.799,3.349l-1.557-1.558c-0.229-0.228-0.576-0.284-0.865-0.14c-0.025-0.006-0.053-0.001-0.07,0.018
	l-0.123,0.122l-7.38,7.381l-0.836,0.837c-0.01,0.01-0.017,0.023-0.02,0.037L2.94,10.037l-0.957,3.57l3.569-0.957l-0.008-0.008
	c0.014-0.003,0.027-0.01,0.037-0.02l8.338-8.341c0.02-0.018,0.025-0.046,0.018-0.07C14.084,3.925,14.025,3.576,13.799,3.349z"/>
</svg>
