<?xml version="1.0" encoding="utf-8"?>
<!-- Generator: Adobe Illustrator 15.0.0, SVG Export Plug-In . SVG Version: 6.00 Build 0)  -->
<!DOCTYPE svg PUBLIC "-//W3C//DTD SVG 1.1//EN" "http://www.w3.org/Graphics/SVG/1.1/DTD/svg11.dtd">
<svg version="1.1" id="Ebene_1" xmlns="http://www.w3.org/2000/svg" xmlns:xlink="http://www.w3.org/1999/xlink" x="0px" y="0px"
	 width="16px" height="16px" viewBox="0 0 16 16" enable-background="new 0 0 16 16" xml:space="preserve">
<path fill="#636363" d="M14.348,6.708l-0.816-0.351c-0.194-0.077-0.351-0.233-0.447-0.428V5.891c-0.078-0.214-0.078-0.448,0-0.642
	l0.331-0.817c0.175-0.272,0.116-0.622-0.098-0.836l-0.914-0.913c-0.213-0.214-0.564-0.253-0.817-0.098l-0.835,0.33
	C10.303,3.09,9.818,2.876,9.643,2.449l-0.35-0.797c-0.059-0.311-0.33-0.524-0.642-0.524l0,0H7.349l0,0
	c-0.312,0-0.583,0.214-0.642,0.505L6.356,2.449C6.162,2.876,5.676,3.072,5.248,2.916l-0.816-0.33
	C4.179,2.411,3.829,2.449,3.596,2.683L2.682,3.596C2.468,3.81,2.43,4.16,2.585,4.413L2.916,5.25
	c0.175,0.446-0.039,0.933-0.467,1.107L1.651,6.708c-0.311,0.058-0.524,0.33-0.524,0.642V8.65c0,0.312,0.214,0.584,0.506,0.643
	l0.816,0.35c0.428,0.195,0.622,0.682,0.467,1.109l-0.331,0.814C2.41,11.84,2.449,12.17,2.682,12.404l0.914,0.914
	c0.214,0.213,0.564,0.252,0.817,0.096l0.835-0.33c0.448-0.176,0.934,0.039,1.108,0.467l0.351,0.797
	c0.059,0.312,0.33,0.525,0.642,0.525l0,0h1.303l0,0c0.312,0,0.583-0.213,0.642-0.506l0.35-0.816
	c0.194-0.428,0.681-0.623,1.108-0.467l0.816,0.33c0.253,0.176,0.603,0.137,0.836-0.096l0.914-0.914
	c0.214-0.215,0.253-0.564,0.098-0.816l-0.331-0.836c-0.175-0.447,0.038-0.934,0.466-1.109l0.798-0.35
	c0.311-0.059,0.525-0.33,0.525-0.643V7.349C14.873,7.038,14.658,6.765,14.348,6.708z M7.99,10.809c-1.556,0-2.819-1.262-2.819-2.818
	c0-1.556,1.264-2.819,2.819-2.819s2.818,1.264,2.818,2.819C10.809,9.547,9.546,10.809,7.99,10.809z"/>
</svg>
