<?xml version="1.0" encoding="utf-8"?>
<!-- Generator: Adobe Illustrator 15.0.0, SVG Export Plug-In . SVG Version: 6.00 Build 0)  -->
<!DOCTYPE svg PUBLIC "-//W3C//DTD SVG 1.1//EN" "http://www.w3.org/Graphics/SVG/1.1/DTD/svg11.dtd">
<svg version="1.1" id="Ebene_1" xmlns="http://www.w3.org/2000/svg" xmlns:xlink="http://www.w3.org/1999/xlink" x="0px" y="0px"
	 width="16px" height="16px" viewBox="0 0 16 16" enable-background="new 0 0 16 16" xml:space="preserve">
<g>
	
		<rect x="3.322" y="7.251" transform="matrix(-0.7073 -0.7069 0.7069 -0.7073 8.3434 20.1382)" fill="#848484" width="10.038" height="2.181"/>
	<path fill="#848484" d="M2.274,4.23l1.542-0.415l0.416-1.543L2.464,0.505c1.035-0.325,2.209-0.091,3.03,0.73
		c1.175,1.177,1.175,3.082,0,4.258c-1.175,1.175-3.082,1.177-4.258,0C0.416,4.673,0.182,3.498,0.506,2.462L2.274,4.23z"/>
	<path fill="#848484" d="M13.726,11.771l-1.542,0.415l-0.416,1.543l1.769,1.768c-1.036,0.324-2.21,0.09-3.03-0.731
		c-1.176-1.176-1.176-3.082,0-4.257c1.175-1.176,3.083-1.176,4.258-0.002c0.82,0.822,1.055,1.995,0.73,3.031L13.726,11.771z"/>
</g>
</svg>
